<?xml version="1.0" encoding="UTF-8" standalone="no"?>
<svg
   xmlns:dc="http://purl.org/dc/elements/1.1/"
   xmlns:cc="http://creativecommons.org/ns#"
   xmlns:rdf="http://www.w3.org/1999/02/22-rdf-syntax-ns#"
   xmlns:svg="http://www.w3.org/2000/svg"
   xmlns="http://www.w3.org/2000/svg"
   xmlns:sodipodi="http://sodipodi.sourceforge.net/DTD/sodipodi-0.dtd"
   xmlns:inkscape="http://www.inkscape.org/namespaces/inkscape"
   version="1.1"
   width="595.27557"
   height="841.88977"
   id="svg4722"
   viewBox="0 0 595.27557 841.88977"
   sodipodi:docname="ski_lucifer-logo2.svg"
   inkscape:version="0.92.3 (2405546, 2018-03-11)">
  <metadata
     id="metadata4728">
    <rdf:RDF>
      <cc:Work
         rdf:about="">
        <dc:format>image/svg+xml</dc:format>
        <dc:type
           rdf:resource="http://purl.org/dc/dcmitype/StillImage" />
        <dc:title></dc:title>
      </cc:Work>
    </rdf:RDF>
  </metadata>
  <defs
     id="defs4726" />
  <sodipodi:namedview
     pagecolor="#ffffff"
     bordercolor="#666666"
     borderopacity="1"
     objecttolerance="10"
     gridtolerance="10"
     guidetolerance="10"
     inkscape:pageopacity="0"
     inkscape:pageshadow="2"
     inkscape:window-width="1858"
     inkscape:window-height="1057"
     id="namedview4724"
     showgrid="false"
     inkscape:zoom="1.5857392"
     inkscape:cx="235.23821"
     inkscape:cy="566.45895"
     inkscape:window-x="-8"
     inkscape:window-y="-8"
     inkscape:window-maximized="1"
     inkscape:current-layer="svg4722" />
  <path
     style="fill:#000000;stroke-width:0.31531036"
     d="m 47.536217,255.17574 c -1.38318,-0.14098 -2.15665,-0.60513 -1.846,-1.10777 0.25257,-0.40867 8.95759,-4.58299 12.01104,-5.75965 l 2.28628,-0.88103 4.91567,1.54298 4.91567,1.54298 -1.21106,1.0351 c -1.55741,1.33114 -4.48688,2.77232 -6.87405,3.38177 -1.79424,0.45807 -10.61589,0.61069 -14.19755,0.24562 z"
     id="path4730"
     inkscape:connector-curvature="0" />
  <path
     style="fill:#000000;stroke-width:0.31531036"
     d="m 55.418897,285.64604 c -4.65108,-0.48953 -9.64168,-2.26948 -13.40461,-4.7809 -1.56193,-1.04244 -5.9909,-5.25326 -5.9909,-5.69581 0,-0.1532 0.3589,-0.18848 0.79755,-0.0784 1.60012,0.4016 9.09191,0.21094 10.95306,-0.27875 3.79164,-0.99763 6.90092,-3.16869 8.04395,-5.61672 0.34177,-0.73195 0.85391,-2.39499 1.13811,-3.69565 0.28419,-1.30066 0.89417,-3.5791 1.35552,-5.06322 l 0.8388,-2.69839 2.40298,-0.49689 c 3.18325,-0.65822 5.41387,-1.65147 7.85121,-3.49598 1.10428,-0.8357 2.03231,-1.47702 2.06227,-1.42517 0.0299,0.0519 0.44615,0.62636 0.92487,1.27668 l 0.87039,1.18242 h 8.12907 8.12906 l 1.32017,-1.78191 c 0.72609,-0.98005 1.4089,-2.13548 1.51736,-2.56762 l 0.1972,-0.7857 3.3143,0.20278 c 1.82287,0.11154 3.81017,0.20279 4.416243,0.20279 h 1.10193 l -0.20235,3.07428 c -0.1113,1.69085 -0.4952,4.13845 -0.85313,5.4391 -3.822303,13.88979 -19.344633,25.3478 -36.694843,27.08678 -3.8101,0.38188 -4.5576,0.38154 -8.21821,-0.004 z m 14.50035,-17.17984 c 1.85799,-0.64262 5.83754,-2.98986 6.29286,-3.71169 0.23291,-0.36924 0.17562,-0.64645 -0.21418,-1.03624 -0.49933,-0.49933 -0.66431,-0.4713 -2.67479,0.45435 -3.81322,1.75566 -5.72731,2.08637 -9.72793,1.68078 -1.91814,-0.19446 -3.71739,-0.35357 -3.99833,-0.35357 -0.54695,0 -1.50177,0.80839 -1.50177,1.27148 0,0.55905 1.43614,1.59923 2.8306,2.0502 1.84125,0.59545 6.81248,0.39905 8.99354,-0.35531 z"
     id="path4734"
     inkscape:connector-curvature="0" />
  <path
     style="fill:#000000;stroke-width:0.31531036"
     d="m 94.473147,242.90862 c -0.48184,-0.10406 -0.72188,-0.45885 -0.8517,-1.25882 -0.58864,-3.62736 -5.63006,-7.74068 -10.04069,-8.19223 -0.94023,-0.0963 -2.57536,-0.61154 -3.71413,-1.17044 l -2.03441,-0.99847 h -9.20955 -9.20954 l -0.18257,-1.10359 c -0.10042,-0.60697 -0.18414,-2.12101 -0.18604,-3.36453 l -0.003,-2.26095 0.96935,-0.21291 c 2.24899,-0.49396 3.50047,-2.4179 3.57597,-5.49744 0.0243,-0.99277 0.13864,-1.12078 1.30291,-1.45922 0.70192,-0.20404 1.85291,-0.46842 2.55775,-0.5875 l 1.28153,-0.21651 0.19253,1.20277 c 0.3064,1.91411 1.77968,4.53607 3.54318,6.30572 2.77883,2.78852 6.14179,3.29309 9.85759,1.479 2.67153,-1.30426 3.49569,-3.32098 2.41457,-5.90845 l -0.47537,-1.13773 -1.93309,0.0533 c -1.85131,0.051 -1.97795,0.004 -2.99305,-1.10332 -1.64651,-1.79666 -1.49935,-1.91206 2.17199,-1.70313 6.40695,0.36461 10.69666,2.10456 14.45961,5.86499 4.03119,4.02848 6.085283,9.33571 6.481853,16.74741 0.24589,4.59574 0.28696,4.54971 -4.119853,4.61778 -1.75144,0.0271 -3.48636,-0.016 -3.85537,-0.0957 z"
     id="path4736"
     inkscape:connector-curvature="0" />
  <path
     style="fill:#000000;stroke-width:0.11147905"
     d=""
     id="path4784"
     inkscape:connector-curvature="0" />
  <path
     style="fill:#000000;stroke-width:0.44591621"
     d="m 84.371707,250.18006 c 0.47794,-3.42161 0.31912,-9.87434 -0.2996,-12.17209 -0.2744,-1.01905 -0.39183,-1.9599 -0.26095,-2.09079 0.34484,-0.34483 2.64601,0.68332 4.36053,1.94825 1.63919,1.20936 3.48079,3.95957 3.48433,5.20342 0.006,2.13476 -1.50883,7.13733 -2.52821,8.3488 -0.93238,1.10806 -1.44521,1.32642 -3.11518,1.32642 h -1.99908 z"
     id="path4788"
     inkscape:connector-curvature="0" />
  <path
     style="fill:#000000;stroke-width:0.44591621"
     d="m 95.755187,247.50928 c -2.14427,-0.14912 -2.35568,-0.25757 -2.22958,-1.14378 0.12975,-0.91181 0.37663,-0.97911 3.59517,-0.98 l 3.455853,-9.5e-4 v 1.22722 c 0,1.06151 -0.16559,1.21609 -1.226273,1.14474 -0.67445,-0.0454 -2.29227,-0.15662 -3.59517,-0.24723 z"
     id="path4790"
     inkscape:connector-curvature="0" />
  <path
     style="fill:#d40000;stroke-width:0.44591621"
     d="m 73.982787,222.20624 c -3.58685,-3.74345 -4.28699,-9.94271 -1.68891,-14.95431 l 1.26692,-2.44385 0.37479,2.6755 c 0.6375,4.55099 1.67985,8.3918 2.79787,10.30953 1.08235,1.85654 3.29242,3.29091 5.0706,3.29091 1.44466,0 1.19133,1.62869 -0.37969,2.44109 -0.72358,0.37418 -2.26294,0.68033 -3.4208,0.68033 -1.91178,0 -2.28121,-0.18369 -4.02078,-1.9992 z"
     id="path4792"
     inkscape:connector-curvature="0" />
  <path
     style="fill:#d40000;stroke-width:0.44591621"
     d="m 54.145627,220.8883 c -2.19762,-1.49332 -3.28513,-3.8628 -3.28708,-7.16189 -0.001,-2.46444 0.83664,-5.5748 1.50175,-5.57334 0.15418,3.4e-4 0.63547,1.2091 1.06951,2.68613 0.9524,3.24095 4.19178,6.93792 6.4802,7.39561 1.5265,0.3053 1.84029,1.2419 0.96439,2.87853 -0.71372,1.33359 -4.62768,1.20269 -6.72877,-0.22504 z"
     id="path4794"
     inkscape:connector-curvature="0" />
  <path
     style="fill:#d40000;stroke-width:0.44591621"
     d="m 105.57843,211.24251 c -6.392903,-7.19441 -19.013563,-11.24218 -29.092593,-9.33074 -1.29944,0.24644 -2.42482,0.38586 -2.50084,0.30984 -0.39899,-0.39899 3.54905,-5.44387 6.70518,-8.56801 9.81144,-9.71199 20.945813,-10.75894 37.468123,-3.52306 4.74173,2.07662 7.63245,4.1392 7.28042,5.1947 -0.13282,0.39825 -1.35934,0.567 -4.16425,0.57295 -3.21443,0.007 -4.37215,0.202 -6.04431,1.019 -3.82224,1.8675 -6.65291,7.63162 -7.62516,15.52716 -0.10122,0.82201 -0.36965,0.66282 -2.02657,-1.20184 z"
     id="path4796"
     inkscape:connector-curvature="0" />
  <path
     style="fill:#4d4d4d;stroke-width:0.44591621"
     d="m 129.44969,202.76574 c -1.22476,-0.71336 -2.23017,-3.0225 -1.89836,-4.35999 0.76999,-3.1038 4.13152,-4.22515 6.26632,-2.09034 2.96634,2.96633 -0.80012,8.5284 -4.36796,6.45033 z"
     id="path4798"
     inkscape:connector-curvature="0" />
  <path
     style="fill:#999999;stroke-width:0.63062072"
     d="m 76.342137,250.32482 c -2.65034,-0.94627 -4.61825,-2.19814 -6.36622,-4.0498 -2.83879,-3.00719 -3.59089,-3.14402 -9.23819,-1.68066 -3.79677,0.98384 -3.87466,0.97782 -4.97834,-0.38517 -1.68774,-2.08428 -1.48839,-6.42333 0.39576,-8.61378 l 1.51698,-1.76359 9.53661,-0.2326 c 10.18428,-0.2484 12.73986,0.23152 14.02557,2.63388 0.83157,1.55381 1.48743,11.61176 0.90778,13.92127 -0.48736,1.94179 -0.81202,1.95133 -5.79995,0.17045 z"
     id="path67"
     inkscape:connector-curvature="0" />
  <path
     style="fill:#999999;stroke-width:0.2229581"
     d="m 104.82535,239.80755 c -0.11386,-0.29946 -0.32463,-1.53902 -0.46837,-2.75456 -0.95823,-8.10278 -3.12873,-13.09271 -7.518713,-17.28533 -2.10948,-2.01463 -4.28013,-3.35807 -6.86577,-4.24931 -2.38775,-0.82302 -4.27649,-1.1833 -8.54282,-1.62957 -1.86877,-0.19548 -3.63039,-0.44386 -3.91472,-0.55197 -0.41055,-0.15609 -0.56795,-0.46413 -0.76464,-1.49644 -0.24565,-1.28929 -0.56641,-3.82188 -0.81866,-6.46382 l -0.13116,-1.37364 1.70687,-0.15994 c 0.93877,-0.088 3.57644,-0.10617 5.86147,-0.0404 3.46063,0.0995 4.53808,0.21591 6.45032,0.69657 7.01913,1.76432 12.953383,5.8045 16.607643,11.30686 3.06776,4.61924 4.26883,8.71161 4.27845,14.57778 0.007,3.97111 -0.24341,5.21226 -1.42344,7.06935 -0.68949,1.08508 -2.5423,2.48568 -3.63966,2.75133 -0.50965,0.12337 -0.64378,0.0582 -0.8168,-0.39688 z"
     id="path69"
     inkscape:connector-curvature="0" />
  <path
     style="fill:#f2f2f2;stroke-width:0.2229581"
     d="m 59.654037,215.93182 c -1.09021,-0.61153 -1.17711,-0.98196 -0.53296,-2.27175 0.74048,-1.48267 2.07759,-2.76056 4.70227,-4.49402 2.52721,-1.66909 6.11246,-3.57893 6.32311,-3.36828 0.0717,0.0717 -0.11954,0.92128 -0.42492,1.88799 -0.30539,0.96671 -0.68044,2.7906 -0.83345,4.05308 -0.23037,1.90076 -0.35813,2.34746 -0.74306,2.59802 -0.37954,0.24705 -4.70537,1.45729 -7.04366,1.9706 -0.35445,0.0778 -0.88396,-0.0596 -1.44733,-0.37564 z"
     id="path71"
     inkscape:connector-curvature="0" />
  <path
     style="fill:#e6e6e6;stroke-width:0.2229581"
     d="m 104.94724,239.91296 c -0.0576,-0.0932 -0.32311,-1.67108 -0.59003,-3.50639 -0.55996,-3.85038 -1.31111,-6.91749 -2.22935,-9.10296 -0.84613,-2.01387 -2.335933,-4.5045 -2.952913,-4.93665 -0.27023,-0.18928 -0.40095,-0.34414 -0.29048,-0.34414 0.36103,0 -3.08066,-3.34551 -4.33784,-4.21662 -1.59886,-1.10786 -3.52729,-2.07727 -3.79865,-1.90956 -0.11803,0.0729 -0.2146,0.0342 -0.2146,-0.0862 0,-0.27255 -1.47642,-0.77773 -1.76026,-0.60231 -0.11455,0.0708 -0.24454,0.0199 -0.28887,-0.11306 -0.0443,-0.13298 -0.42913,-0.25902 -0.85513,-0.28009 -0.426,-0.0211 -0.83162,-0.11515 -0.90138,-0.20908 -0.0698,-0.0939 -0.67175,-0.19425 -1.33775,-0.22295 -0.666,-0.0287 -1.26108,-0.11045 -1.32239,-0.18166 -0.0613,-0.0712 -1.56628,-0.29762 -3.34437,-0.50312 -2.33322,-0.26966 -3.30447,-0.46998 -3.4901,-0.71983 -0.33267,-0.44778 -0.66481,-2.36212 -1.00519,-5.79352 -0.14998,-1.51192 -0.3537,-2.69888 -0.45272,-2.63768 -0.099,0.0612 -0.18003,-0.0511 -0.18003,-0.24949 0,-0.19842 0.10033,-0.29875 0.22296,-0.22296 0.12263,0.0758 0.22282,0.0566 0.22265,-0.0426 -1.7e-4,-0.0992 2.73385,-0.11853 6.07561,-0.0429 5.60265,0.12674 6.23221,0.1817 8.08254,0.70564 5.3301,1.50927 9.37246,3.81341 12.958903,7.38657 5.37658,5.35667 7.6883,11.48652 7.3816,19.57339 -0.12693,3.3467 -0.31728,4.15322 -1.33933,5.67474 -1.13735,1.69315 -3.80252,3.31214 -4.25288,2.58345 z"
     id="path73"
     inkscape:connector-curvature="0" />
  <text
     xml:space="preserve"
     style="font-style:normal;font-variant:normal;font-weight:normal;font-stretch:normal;font-size:40px;line-height:1.25;font-family:'Nunito Sans';-inkscape-font-specification:'Nunito Sans';letter-spacing:0px;word-spacing:0px;fill:#aa0000;fill-opacity:1;stroke:none;"
     x="137.47533"
     y="240.90822"
     id="text77"><tspan
       sodipodi:role="line"
       id="tspan75"
       x="137.47533"
       y="240.90822"
       style="font-style:normal;font-variant:normal;font-weight:normal;font-stretch:normal;font-size:74.66666412px;font-family:Lora;-inkscape-font-specification:Lora;fill:#aa0000;">Ski Lucifer</tspan></text>
  <text
     xml:space="preserve"
     style="font-style:normal;font-variant:normal;font-weight:300;font-stretch:normal;font-size:40px;line-height:1.25;font-family:'Nunito Sans';-inkscape-font-specification:'Nunito Sans Light';letter-spacing:0px;word-spacing:0px;fill:#000000;fill-opacity:1;stroke:none;"
     x="136.21408"
     y="284.42105"
     id="text81"><tspan
       sodipodi:role="line"
       id="tspan79"
       x="136.21408"
       y="284.42105">Josefův Důl</tspan></text>
  <path
     style="fill:#aa0000;stroke-width:0.63062072"
     d="m 104.18885,209.48724 c -6.349596,-5.58735 -16.744661,-8.96705 -25.123862,-8.16839 -2.753726,0.26247 -4.25669,0.17719 -4.25669,-0.24151 0,-0.35597 2.341179,-3.02692 5.202621,-5.93545 6.73651,-6.84735 10.51504,-8.7394 18.235451,-9.13114 4.55655,-0.2312 6.41779,-0.004 11.19284,1.36559 6.02762,1.729 13.74271,5.2781 15.14398,6.96653 0.73197,0.88197 0.54285,1.00234 -1.61285,1.02658 -8.74144,0.0983 -12.47385,3.31221 -14.70163,12.65927 l -0.99467,4.17335 z"
     id="path83"
     inkscape:connector-curvature="0" />
  <path
     style="fill:#aa0000;stroke-width:0.63062072"
     d="m 74.124298,221.77092 c -3.131526,-3.35231 -3.875953,-9.40823 -1.73431,-14.10862 0.743931,-1.63276 0.848877,-1.43485 2.214727,4.17638 1.160523,4.7677 1.799215,6.22087 3.351118,7.62455 1.054531,0.95382 2.480411,1.73421 3.168622,1.73421 0.68821,0 1.251292,0.22702 1.251292,0.5045 0,1.16724 -1.674587,2.01798 -3.972148,2.01798 -1.934722,0 -2.846634,-0.41533 -4.279301,-1.949 z"
     id="path85"
     inkscape:connector-curvature="0" />
  <path
     style="fill:#aa0000;stroke-width:0.63062072"
     d="m 55.319846,221.03049 c -2.669575,-1.37195 -3.96919,-3.78165 -3.941868,-7.30887 0.01375,-1.77509 0.29205,-3.70462 0.618444,-4.28786 0.494916,-0.88436 0.664959,-0.73481 1.024192,0.90076 0.616875,2.80862 3.653449,6.72866 5.948637,7.67936 3.086012,1.27827 2.359114,3.83529 -1.081634,3.80488 -0.578605,-0.005 -1.734103,-0.35983 -2.567771,-0.78827 z"
     id="path87"
     inkscape:connector-curvature="0" />
</svg>
