<?xml version="1.0" encoding="UTF-8" standalone="no"?>
<svg
   xmlns:dc="http://purl.org/dc/elements/1.1/"
   xmlns:cc="http://creativecommons.org/ns#"
   xmlns:rdf="http://www.w3.org/1999/02/22-rdf-syntax-ns#"
   xmlns:svg="http://www.w3.org/2000/svg"
   xmlns="http://www.w3.org/2000/svg"
   xmlns:sodipodi="http://sodipodi.sourceforge.net/DTD/sodipodi-0.dtd"
   xmlns:inkscape="http://www.inkscape.org/namespaces/inkscape"
   version="1.1"
   width="595.27557"
   height="841.88977"
   id="svg4722"
   viewBox="0 0 595.27557 841.88977"
   sodipodi:docname="ski_lucifer-logo4.svg"
   inkscape:version="0.92.3 (2405546, 2018-03-11)">
  <metadata
     id="metadata4728">
    <rdf:RDF>
      <cc:Work
         rdf:about="">
        <dc:format>image/svg+xml</dc:format>
        <dc:type
           rdf:resource="http://purl.org/dc/dcmitype/StillImage" />
        <dc:title></dc:title>
      </cc:Work>
    </rdf:RDF>
  </metadata>
  <defs
     id="defs4726" />
  <sodipodi:namedview
     pagecolor="#ffffff"
     bordercolor="#666666"
     borderopacity="1"
     objecttolerance="10"
     gridtolerance="10"
     guidetolerance="10"
     inkscape:pageopacity="0"
     inkscape:pageshadow="2"
     inkscape:window-width="1858"
     inkscape:window-height="1057"
     id="namedview4724"
     showgrid="false"
     inkscape:zoom="2.2425738"
     inkscape:cx="336.31158"
     inkscape:cy="615.40591"
     inkscape:window-x="-8"
     inkscape:window-y="-8"
     inkscape:window-maximized="1"
     inkscape:current-layer="svg4722" />
  <path
     style="fill:#000000;stroke-width:0.11147905"
     d=""
     id="path4784"
     inkscape:connector-curvature="0" />
  <path
     style="fill:#aa0000;stroke-width:0.85787684"
     d="m 186.09035,176.1957 c 6.1184,-8.98513 5.09105,-19.34206 -2.47828,-24.98375 l -3.69111,-2.75109 0.28874,4.53256 c 0.49114,7.70983 -0.16848,14.65185 -1.77053,18.63381 -1.55093,3.85491 -5.67517,8.01907 -9.46229,9.55389 -3.07683,1.24695 -1.87561,3.59051 1.80035,3.51257 1.69309,-0.0359 5.09596,-0.88295 7.56195,-1.88236 4.07167,-1.65014 4.78385,-2.25798 7.75117,-6.61563 z"
     id="path4792"
     inkscape:connector-curvature="0" />
  <text
     xml:space="preserve"
     style="font-style:normal;font-variant:normal;font-weight:normal;font-stretch:normal;font-size:40px;line-height:1.25;font-family:'Nunito Sans';-inkscape-font-specification:'Nunito Sans';letter-spacing:0px;word-spacing:0px;fill:#000000;fill-opacity:1;stroke:none;"
     x="137.47533"
     y="240.90822"
     id="text77"><tspan
       sodipodi:role="line"
       id="tspan75"
       x="137.47533"
       y="240.90822"
       style="font-style:normal;font-variant:normal;font-weight:normal;font-stretch:normal;font-size:74.66666412px;font-family:Lora;-inkscape-font-specification:Lora;fill:#000000;">Ski Lucifer</tspan></text>
  <text
     xml:space="preserve"
     style="font-style:normal;font-variant:normal;font-weight:300;font-stretch:normal;font-size:40px;line-height:1.25;font-family:'Nunito Sans';-inkscape-font-specification:'Nunito Sans Light';letter-spacing:0px;word-spacing:0px;fill:#000000;fill-opacity:1;stroke:none;"
     x="136.21408"
     y="284.42105"
     id="text81"><tspan
       sodipodi:role="line"
       id="tspan79"
       x="136.21408"
       y="284.42105">Josefův Důl</tspan></text>
  <path
     style="fill:#aa0000;stroke-width:1.24779236"
     d="m 133.38312,190.84774 c -6.6426,-0.34374 -11.7797,-3.49333 -16.04676,-9.83834 -4.15639,-6.18042 -2.46833,-14.14257 -0.6938,-14.7746 0.57507,-0.20483 -0.25372,4.75606 2.44897,7.66364 7.20748,7.75392 12.8233,10.97853 19.34725,11.10919 3.1021,0.0621 5.36574,0.66946 5.03033,1.34964 -1.17546,2.38358 -6.34279,4.6842 -10.08599,4.49047 z"
     id="path89"
     inkscape:connector-curvature="0"
     sodipodi:nodetypes="ccccccc" />
  <path
     style="fill:#aa0000;stroke-width:0.41424611"
     d="m 550.04729,240.92863 c -5.40711,-1.08697 -10.56029,-5.03448 -16.34853,-12.52353 -2.0096,-2.60008 -4.70226,-6.06578 -5.9837,-7.70153 -5.03022,-6.42112 -10.37253,-9.87141 -15.73586,-10.16287 l -2.85384,-0.1551 0.23607,-2.08836 c 0.1298,-1.14857 0.36704,-2.72819 0.52713,-3.51022 l 0.29109,-1.42188 3.63222,0.0355 c 3.04851,0.0297 4.00925,0.21283 5.97841,1.13943 3.46839,1.63204 6.78579,5.34954 10.10002,11.31819 5.61541,10.11283 6.75033,11.79625 10.22426,15.16556 3.61713,3.50817 6.15332,4.96212 10.54947,6.04783 3.28964,0.81244 10.42464,0.75292 14.80082,-0.12344 l 3.3792,-0.6767 0.5183,-3.01252 c 0.66613,-3.87179 1.23154,-5.56681 2.48084,-7.43711 1.96724,-2.94511 3.56247,-3.18778 12.62961,-1.92126 l 3.80158,0.531 -2.03465,6.02142 c -2.31597,6.85393 -3.53058,8.57515 -6.41883,9.09628 -1.94265,0.35051 -5.53668,-0.28052 -8.62249,-1.51389 l -2.14633,-0.85788 -2.42722,1.0346 c -5.84079,2.48966 -12.37763,3.56083 -16.57757,2.71655 z"
     id="path4744"
     inkscape:connector-curvature="0" />
</svg>
