<?xml version="1.0" encoding="UTF-8" standalone="no"?>
<svg
   xmlns:dc="http://purl.org/dc/elements/1.1/"
   xmlns:cc="http://creativecommons.org/ns#"
   xmlns:rdf="http://www.w3.org/1999/02/22-rdf-syntax-ns#"
   xmlns:svg="http://www.w3.org/2000/svg"
   xmlns="http://www.w3.org/2000/svg"
   xmlns:sodipodi="http://sodipodi.sourceforge.net/DTD/sodipodi-0.dtd"
   xmlns:inkscape="http://www.inkscape.org/namespaces/inkscape"
   version="1.1"
   width="595.27557"
   height="841.88977"
   id="svg4722"
   viewBox="0 0 595.27557 841.88977"
   sodipodi:docname="ski_lucifer-logo5.svg"
   inkscape:version="0.92.3 (2405546, 2018-03-11)">
  <metadata
     id="metadata4728">
    <rdf:RDF>
      <cc:Work
         rdf:about="">
        <dc:format>image/svg+xml</dc:format>
        <dc:type
           rdf:resource="http://purl.org/dc/dcmitype/StillImage" />
        <dc:title></dc:title>
      </cc:Work>
    </rdf:RDF>
  </metadata>
  <defs
     id="defs4726" />
  <sodipodi:namedview
     pagecolor="#ffffff"
     bordercolor="#666666"
     borderopacity="1"
     objecttolerance="10"
     gridtolerance="10"
     guidetolerance="10"
     inkscape:pageopacity="0"
     inkscape:pageshadow="2"
     inkscape:window-width="1858"
     inkscape:window-height="1057"
     id="namedview4724"
     showgrid="false"
     inkscape:zoom="4.4851476"
     inkscape:cx="488.67241"
     inkscape:cy="648.75806"
     inkscape:window-x="-8"
     inkscape:window-y="-8"
     inkscape:window-maximized="1"
     inkscape:current-layer="svg4722" />
  <path
     style="fill:#000000;stroke-width:0.11147905"
     d=""
     id="path4784"
     inkscape:connector-curvature="0" />
  <path
     style="fill:#aa0000;stroke-width:0.55090773"
     d="m 174.32388,181.07162 c 4.45143,-4.60401 5.32034,-12.22839 2.09601,-18.39208 l -1.5723,-3.00565 -0.46513,3.29056 c -0.79117,5.59719 -2.08477,10.32094 -3.47228,12.67953 -1.34324,2.28333 -4.08603,4.04744 -6.29283,4.04744 -1.79289,0 -1.47849,2.0031 0.47121,3.00226 0.89799,0.4602 2.80841,0.83673 4.24536,0.83673 2.3726,0 2.83108,-0.22592 4.98996,-2.45879 z"
     id="path4792"
     inkscape:connector-curvature="0" />
  <text
     xml:space="preserve"
     style="font-style:normal;font-variant:normal;font-weight:normal;font-stretch:normal;font-size:40px;line-height:1.25;font-family:'Nunito Sans';-inkscape-font-specification:'Nunito Sans';letter-spacing:0px;word-spacing:0px;fill:#000000;fill-opacity:1;stroke:none;"
     x="137.47533"
     y="240.90822"
     id="text77"><tspan
       sodipodi:role="line"
       id="tspan75"
       x="137.47533"
       y="240.90822"
       style="font-style:normal;font-variant:normal;font-weight:normal;font-stretch:normal;font-size:74.66666412px;font-family:Lora;-inkscape-font-specification:Lora;fill:#000000;">Ski Lucifer</tspan></text>
  <text
     xml:space="preserve"
     style="font-style:normal;font-variant:normal;font-weight:300;font-stretch:normal;font-size:40px;line-height:1.25;font-family:'Nunito Sans';-inkscape-font-specification:'Nunito Sans Light';letter-spacing:0px;word-spacing:0px;fill:#000000;fill-opacity:1;stroke:none;"
     x="136.21408"
     y="284.42105"
     id="text81"><tspan
       sodipodi:role="line"
       id="tspan79"
       x="136.21408"
       y="284.42105">Josefův Důl</tspan></text>
  <path
     style="fill:#aa0000;stroke-width:0.77383256"
     d="m 134.84083,193.06415 c -3.3382,-1.67833 -5.083,-4.76249 -5.45023,-9.63399 -0.35771,-4.74513 0.21166,-8.37593 1.3135,-8.37593 0.35708,0 1.10336,1.96135 1.65843,4.35857 1.48023,6.39286 3.45103,9.6291 6.78966,11.14927 1.5875,0.72283 2.58284,1.5984 2.21187,1.94571 -1.30006,1.21709 -4.6421,1.50215 -6.52323,0.55637 z"
     id="path89"
     inkscape:connector-curvature="0" />
  <path
     style="fill:#aa0000;stroke-width:0.37011242"
     d="m 546.55869,238.95218 c -4.82832,-0.97171 -9.42988,-4.50064 -14.59853,-11.19558 -1.79447,-2.32439 -4.19891,-5.4226 -5.34317,-6.88491 -4.49177,-5.74024 -9.26222,-8.82468 -14.05145,-9.08524 l -2.54835,-0.13865 0.2108,-1.86691 c 0.11591,-1.0268 0.32775,-2.43891 0.47072,-3.13802 l 0.25993,-1.27111 3.24341,0.0317 c 2.72217,0.0266 3.58007,0.19027 5.33846,1.01861 3.09711,1.45899 6.05939,4.78231 9.01887,10.11807 5.01431,9.04051 6.02774,10.54543 9.12982,13.55747 3.22993,3.13618 5.49464,4.43596 9.42021,5.40654 2.9375,0.72629 9.30874,0.67308 13.21648,-0.11035 l 3.01748,-0.60494 0.46282,-2.69309 c 0.59482,-3.46124 1.09972,-4.97652 2.21529,-6.64851 1.75665,-2.63282 3.18112,-2.84976 11.27768,-1.71755 l 3.39465,0.47471 -1.81686,5.38293 c -2.06806,6.12716 -3.15265,7.66588 -5.73173,8.13175 -1.7347,0.31335 -4.94401,-0.25077 -7.6995,-1.35336 l -1.91659,-0.76692 -2.1674,0.9249 c -5.21556,2.22566 -11.05268,3.18325 -14.80304,2.42849 z"
     id="path4744"
     inkscape:connector-curvature="0" />
</svg>
