<?xml version="1.0" encoding="UTF-8" standalone="no"?>
<svg
   xmlns:dc="http://purl.org/dc/elements/1.1/"
   xmlns:cc="http://creativecommons.org/ns#"
   xmlns:rdf="http://www.w3.org/1999/02/22-rdf-syntax-ns#"
   xmlns:svg="http://www.w3.org/2000/svg"
   xmlns="http://www.w3.org/2000/svg"
   xmlns:sodipodi="http://sodipodi.sourceforge.net/DTD/sodipodi-0.dtd"
   xmlns:inkscape="http://www.inkscape.org/namespaces/inkscape"
   version="1.1"
   width="595.27557"
   height="841.88977"
   id="svg4722"
   viewBox="0 0 595.27557 841.88977"
   sodipodi:docname="ski_lucifer-logo3.svg"
   inkscape:version="0.92.3 (2405546, 2018-03-11)">
  <metadata
     id="metadata4728">
    <rdf:RDF>
      <cc:Work
         rdf:about="">
        <dc:format>image/svg+xml</dc:format>
        <dc:type
           rdf:resource="http://purl.org/dc/dcmitype/StillImage" />
        <dc:title></dc:title>
      </cc:Work>
    </rdf:RDF>
  </metadata>
  <defs
     id="defs4726" />
  <sodipodi:namedview
     pagecolor="#ffffff"
     bordercolor="#666666"
     borderopacity="1"
     objecttolerance="10"
     gridtolerance="10"
     guidetolerance="10"
     inkscape:pageopacity="0"
     inkscape:pageshadow="2"
     inkscape:window-width="1858"
     inkscape:window-height="1057"
     id="namedview4724"
     showgrid="false"
     inkscape:zoom="1.1212869"
     inkscape:cx="144.52918"
     inkscape:cy="644.03082"
     inkscape:window-x="-8"
     inkscape:window-y="-8"
     inkscape:window-maximized="1"
     inkscape:current-layer="svg4722" />
  <path
     style="fill:#000000;stroke-width:0.11147905"
     d=""
     id="path4784"
     inkscape:connector-curvature="0" />
  <path
     style="fill:#000000;stroke-width:0.44591621"
     d="m 172.2088,181.53121 c 3.58685,-3.74345 4.28699,-9.94271 1.68891,-14.95431 l -1.26692,-2.44385 -0.37479,2.6755 c -0.6375,4.55099 -1.67985,8.3918 -2.79787,10.30953 -1.08235,1.85654 -3.29242,3.29091 -5.0706,3.29091 -1.44466,0 -1.19133,1.62869 0.37969,2.44109 0.72358,0.37418 2.26294,0.68033 3.4208,0.68033 1.91178,0 2.28121,-0.18369 4.02078,-1.9992 z"
     id="path4792"
     inkscape:connector-curvature="0" />
  <text
     xml:space="preserve"
     style="font-style:normal;font-variant:normal;font-weight:normal;font-stretch:normal;font-size:40px;line-height:1.25;font-family:'Nunito Sans';-inkscape-font-specification:'Nunito Sans';letter-spacing:0px;word-spacing:0px;fill:#aa0000;fill-opacity:1;stroke:none;"
     x="137.47533"
     y="240.90822"
     id="text77"><tspan
       sodipodi:role="line"
       id="tspan75"
       x="137.47533"
       y="240.90822"
       style="font-style:normal;font-variant:normal;font-weight:normal;font-stretch:normal;font-size:74.66666412px;font-family:Lora;-inkscape-font-specification:Lora;fill:#aa0000;">Ski Lucifer</tspan></text>
  <text
     xml:space="preserve"
     style="font-style:normal;font-variant:normal;font-weight:300;font-stretch:normal;font-size:40px;line-height:1.25;font-family:'Nunito Sans';-inkscape-font-specification:'Nunito Sans Light';letter-spacing:0px;word-spacing:0px;fill:#000000;fill-opacity:1;stroke:none;"
     x="136.21408"
     y="284.42105"
     id="text81"><tspan
       sodipodi:role="line"
       id="tspan79"
       x="136.21408"
       y="284.42105">Josefův Důl</tspan></text>
  <path
     style="fill:#000000;stroke-width:0.63062072"
     d="m 136.17241,193.15882 c -2.66479,-1.39627 -4.05761,-3.96211 -4.35076,-8.0149 -0.28555,-3.94767 0.16896,-6.96828 1.04853,-6.96828 0.28504,0 0.88078,1.63173 1.32387,3.62607 1.18163,5.31848 2.75486,8.01084 5.41999,9.27553 1.26726,0.60135 2.06181,1.32977 1.76567,1.61871 -1.0378,1.01255 -3.70565,1.2497 -5.2073,0.46287 z"
     id="path89"
     inkscape:connector-curvature="0" />
  <path
     style="fill:#000000;stroke-width:0.31531036"
     d="m 540.56441,237.42502 c -4.03628,-0.84365 -7.883,-3.9075 -12.20378,-9.7201 -1.50011,-2.01805 -3.51012,-4.70794 -4.46668,-5.97753 -3.75494,-4.98373 -7.74284,-7.66166 -11.74644,-7.88788 l -2.13032,-0.12038 0.17622,-1.62087 c 0.0969,-0.89147 0.27399,-2.11748 0.3935,-2.72445 l 0.21729,-1.10359 2.71136,0.0275 c 2.27563,0.0231 2.9928,0.16519 4.46274,0.88436 2.58906,1.26671 5.06541,4.15204 7.53941,8.78459 4.19176,7.84905 5.03895,9.15563 7.63216,11.77071 2.70009,2.72286 4.5933,3.85134 7.87492,4.694 2.45563,0.63057 7.78173,0.58438 11.04844,-0.0958 l 2.52249,-0.52522 0.3869,-2.33816 c 0.49725,-3.00508 0.91932,-4.32066 1.85189,-5.77229 1.46849,-2.28584 2.65929,-2.47419 9.42769,-1.49119 l 2.83779,0.41214 -1.51882,4.67351 c -1.72882,5.31965 -2.63549,6.65558 -4.7915,7.06005 -1.45014,0.27205 -4.13299,-0.21772 -6.43647,-1.175 l -1.60219,-0.66584 -1.81186,0.803 c -4.36,1.93234 -9.23959,2.76373 -12.37474,2.10844 z"
     id="path4744"
     inkscape:connector-curvature="0" />
</svg>
